<?xml version="1.0" encoding="UTF-8"?>
<svg id="Layer_2" data-name="Layer 2" xmlns="http://www.w3.org/2000/svg" viewBox="0 0 1816.09 465.27">
  <defs>
    <style>
      .cls-1, .cls-2 {
        font-family: JosefinSans-Regular, 'Josefin Sans';
      }

      .cls-2 {
        font-size: 50px;
      }

      .cls-2, .cls-3, .cls-4 {
        fill: #dd2010;
      }

      .cls-5 {
        letter-spacing: .3em;
      }

      .cls-6 {
        letter-spacing: .24em;
      }

      .cls-4 {
        font-size: 202px;
        letter-spacing: .08em;
      }

      .cls-7 {
        font-family: JosefinSans-Light, 'Josefin Sans';
        font-weight: 300;
      }
    </style>
  </defs>
  <g id="Layer_1-2" data-name="Layer 1">
    <text class="cls-4" transform="translate(546.02 241.92)"><tspan class="cls-1" x="0" y="0">UMESHA</tspan><tspan class="cls-7" x="974.23" y="0" xml:space="preserve"> G.</tspan></text>
    <g>
      <g>
        <g id="_Mirror_Repeat_" data-name="&amp;lt;Mirror Repeat&amp;gt;">
          <g>
            <path class="cls-3" d="m215.25,45.31v43.1c-30.28-20.71-62.86-39.28-93.66-59.83-6.97-4.65-6.75-14.96.43-19.29,4.26-2.57,8.66-4.96,12.86-7.58,3.68-2.3,8.36-2.26,12.04.04,22.45,14.04,46.19,29.75,68.33,43.56Z"/>
            <path class="cls-3" d="m78.36,76.93c-2.97,2.35-7.15,2.51-10.3.4-8.36-5.62-5.85-18.72-5.85-28.79v-22.58c0-8.91,9.76-14.39,17.36-9.75,38.65,23.58,90.9,56.85,124.76,77.09-9.38,5.65-18.25,12.47-27.89,17.75-7.24-6.19-34.33-22.59-42.55-28.37-17.72-12.94-37.23-20.21-55.53-5.76Z"/>
            <path class="cls-3" d="m.01,144.4c.02-3.66,1.8-7.08,4.77-9.21,10.82-7.76,31.2-19.32,38.99-24.91,39.52-28.85,63.07-38.22,104.39-5.49,9.1,6.19,50.48,32.91,58.59,39.04-7.32,3.91-23.75,15.73-30.3,21.4-4.74-4.51-11.17-7.92-16.62-11.59-30.53-22.21-60.46-45.98-94.36-15.56-16.06,10.15-31.84,20.83-47.82,31.12-7.56,4.87-17.53-.54-17.59-9.53-.04-5.41-.07-10.82-.04-15.27Z"/>
            <path class="cls-3" d="m.11,207.71c0-3.7,1.79-7.17,4.82-9.31,15.75-11.12,54.33-35.22,64.6-42.44,11.45-7.51,19.96-14.12,33.92-15.92,26.37-2.24,43.57,19.63,64.83,32.16-4.87,2.01-25.72,16.32-29.19,19.85-29.18-23.24-36.24-16.28-63.98,2.43-18.36,10.95-38.26,25.63-57.57,37.67-7.62,4.76-17.5-.74-17.47-9.72.02-5.19.04-10.4.04-14.72Z"/>
            <path class="cls-3" d="m65.44,252.91c35.95-23.93,75.1-47.67,109.32-73.56,5.86,2.15,24.32,16.58,31.99,20.85-39.89,28.23-86.64,58.35-128.55,86.63-7.56,5.1-17.75-.29-17.8-9.41-.02-5.29-.05-10.59-.06-14.98,0-3.83,1.91-7.4,5.1-9.52Z"/>
            <path class="cls-3" d="m60.36,222.79c0-3.63,1.72-7.04,4.64-9.19,5.55-4.08,12.74-8.18,17.8-11.49,18.21-12.93,27.03-22.03,46.58-4.19-13.31,7.92-33.88,22.66-51.22,34.34-7.59,5.11-17.8-.32-17.8-9.47h0Z"/>
            <path class="cls-3" d="m65.22,308.51c27.24-19.29,86.28-57.6,109.54-73.11,7.3,4.09,22.53,16.32,29.57,21.74-24.63,16.72-89.63,58.38-126.47,82.15-7.65,4.93-17.71-.62-17.61-9.72.05-3.93.13-7.86.15-11.77.01-3.69,1.8-7.16,4.81-9.29Z"/>
            <path class="cls-3" d="m215.25,262.47v41.94c-20.3,12.99-42,27.01-62.36,40.47-3.76,2.49-8.63,2.53-12.43.1-3.42-2.18-7.14-4.38-10.76-6.59-7.08-4.33-7.33-14.51-.48-19.18,28.31-19.31,57.79-37.44,86.02-56.73Z"/>
          </g>
        </g>
        <g id="_Mirror_Repeat_-2" data-name="&amp;lt;Mirror Repeat&amp;gt;">
          <g>
            <path class="cls-3" d="m215.25,45.34v43.13c30.28-20.73,62.86-39.3,93.66-59.87,6.97-4.66,6.75-14.97-.43-19.31-4.26-2.57-8.66-4.96-12.86-7.58-3.68-2.3-8.36-2.26-12.04.04-22.45,14.05-46.19,29.77-68.33,43.59Z"/>
            <path class="cls-3" d="m352.14,76.98c2.97,2.35,7.15,2.51,10.3.4,8.36-5.62,5.85-18.74,5.85-28.8v-22.59c0-8.92-9.76-14.4-17.36-9.75-38.65,23.59-90.9,56.89-124.76,77.14,9.38,5.65,18.25,12.48,27.89,17.76,7.24-6.19,34.33-22.6,42.55-28.39,17.72-12.95,37.23-20.23,55.53-5.76Z"/>
            <path class="cls-3" d="m430.49,144.49c-.02-3.66-1.8-7.08-4.77-9.21-10.82-7.77-31.2-19.34-38.99-24.92-39.52-28.87-63.07-38.24-104.39-5.5-9.1,6.19-50.48,32.93-58.59,39.07,7.32,3.91,23.75,15.74,30.3,21.41,4.74-4.51,11.17-7.92,16.62-11.6,30.53-22.22,60.46-46.01,94.36-15.57,16.06,10.15,31.84,20.84,47.82,31.14,7.56,4.87,17.53-.54,17.59-9.54.04-5.42.07-10.83.04-15.28Z"/>
            <path class="cls-3" d="m430.39,207.85c0-3.7-1.79-7.18-4.82-9.31-15.75-11.13-54.33-35.25-64.6-42.47-11.45-7.51-19.96-14.13-33.92-15.93-26.37-2.24-43.57,19.64-64.83,32.18,4.87,2.01,25.72,16.33,29.19,19.87,29.18-23.26,36.24-16.29,63.98,2.43,18.36,10.95,38.26,25.64,57.57,37.69,7.62,4.76,17.5-.74,17.47-9.73-.02-5.19-.04-10.41-.04-14.73Z"/>
            <path class="cls-3" d="m365.06,253.08c-35.95-23.94-75.1-47.71-109.32-73.61-5.86,2.15-24.32,16.59-31.99,20.86,39.89,28.25,86.64,58.39,128.55,86.69,7.56,5.1,17.75-.29,17.8-9.42.02-5.3.05-10.59.06-14.99,0-3.83-1.91-7.4-5.1-9.53Z"/>
            <path class="cls-3" d="m370.14,222.94c0-3.63-1.72-7.05-4.64-9.2-5.55-4.08-12.74-8.19-17.8-11.5-18.21-12.94-27.03-22.05-46.58-4.2,13.31,7.93,33.88,22.68,51.22,34.36,7.59,5.11,17.8-.32,17.8-9.47h0Z"/>
            <path class="cls-3" d="m365.28,308.72c-27.24-19.3-86.28-57.64-109.54-73.15-7.3,4.09-22.53,16.33-29.57,21.75,24.63,16.73,89.63,58.42,126.47,82.2,7.65,4.94,17.71-.62,17.61-9.73-.05-3.93-.13-7.87-.15-11.78-.01-3.7-1.8-7.16-4.81-9.3Z"/>
            <path class="cls-3" d="m215.25,262.65v41.97c20.3,13,42,27.03,62.36,40.49,3.76,2.49,8.63,2.53,12.43.1,3.42-2.18,7.14-4.38,10.76-6.6,7.08-4.33,7.33-14.52.48-19.2-28.31-19.32-57.79-37.46-86.02-56.76Z"/>
          </g>
        </g>
      </g>
      <circle class="cls-3" cx="215.1" cy="117.12" r="11.93"/>
      <circle class="cls-3" cx="215.1" cy="173.17" r="17.29"/>
      <circle class="cls-3" cx="215.1" cy="229.22" r="15.5"/>
    </g>
    <text class="cls-2" transform="translate(547.82 453.62)"><tspan class="cls-5" x="0" y="0">CRAFTING DIGI</tspan><tspan class="cls-6" x="572.34" y="0">T</tspan><tspan class="cls-5" x="613.59" y="0">AL EXPERIENCES</tspan></text>
  </g>
</svg>