<?xml version="1.0" encoding="UTF-8"?>
<svg id="Layer_2" data-name="Layer 2" xmlns="http://www.w3.org/2000/svg" viewBox="0 0 2009.15 347">
  <defs>
    <style>
      .cls-1 {
        fill: #dd2010;
      }
    </style>
  </defs>
  <g id="Layer_1-2" data-name="Layer 1">
    <g>
      <path class="cls-1" d="m675.47,208.64c0,6.83,1.71,13,5.15,18.5,3.43,5.5,7.98,9.88,13.65,13.15,5.67,3.27,12.01,4.9,19.02,4.9,7.46,0,14.1-1.63,19.92-4.9,5.82-3.27,10.41-7.65,13.76-13.15,3.36-5.49,5.04-11.66,5.04-18.5v-104.06h23.5v104.73c0,11.74-2.76,22.03-8.28,30.86-5.52,8.84-12.98,15.71-22.38,20.61s-19.92,7.35-31.55,7.35-21.71-2.45-31.1-7.35-16.82-11.77-22.27-20.61c-5.45-8.84-8.17-19.12-8.17-30.86v-104.73h23.72v104.06Z"/>
      <path class="cls-1" d="m835.46,266.35V99.23h.22l86.38,121.89-10.29-2.23,85.93-119.66h.45v167.12h-23.72v-113.42l1.57,12.26-59.97,84.45h-.45l-61.09-84.45,4.03-11.14v112.31h-23.05Z"/>
      <path class="cls-1" d="m1060.58,104.58h106.74v22.95h-82.8v46.13h73.62v22.95h-73.62v46.79h85.93v22.95h-109.87V104.58Z"/>
      <path class="cls-1" d="m1308.52,135.55c-5.67-2.97-11.79-5.49-18.35-7.58-6.57-2.08-12.91-3.12-19.02-3.12-8.36,0-14.99,1.89-19.92,5.68s-7.38,8.95-7.38,15.49c0,4.61,1.64,8.62,4.92,12.03,3.28,3.42,7.53,6.39,12.75,8.91,5.22,2.53,10.74,4.9,16.56,7.13,4.92,1.78,9.81,3.9,14.66,6.35,4.85,2.45,9.25,5.46,13.2,9.02,3.95,3.57,7.08,7.99,9.4,13.26,2.31,5.27,3.47,11.7,3.47,19.27,0,8.62-2.13,16.42-6.38,23.4-4.25,6.98-10.37,12.52-18.35,16.6-7.98,4.09-17.64,6.13-28.98,6.13-6.86,0-13.54-.78-20.03-2.34-6.49-1.56-12.61-3.64-18.35-6.24-5.75-2.6-10.93-5.46-15.55-8.58l10.74-18.5c3.58,2.53,7.68,4.94,12.31,7.24,4.62,2.3,9.43,4.12,14.43,5.46,5,1.34,9.73,2.01,14.21,2.01,4.92,0,9.77-.85,14.54-2.56,4.77-1.71,8.73-4.38,11.86-8.02,3.13-3.64,4.7-8.43,4.7-14.37,0-5.05-1.38-9.32-4.14-12.81-2.76-3.49-6.42-6.5-10.96-9.02-4.55-2.52-9.44-4.75-14.66-6.68-5.07-1.93-10.22-4.08-15.44-6.46-5.22-2.37-10.07-5.24-14.55-8.58s-8.09-7.5-10.85-12.48c-2.76-4.98-4.14-11.1-4.14-18.38,0-8.61,2.05-16.16,6.15-22.62,4.1-6.46,9.81-11.55,17.12-15.26,7.31-3.71,15.74-5.79,25.29-6.24,10.89,0,20.36,1.34,28.42,4.01,8.06,2.67,15.22,5.87,21.48,9.58l-9.17,18.27Z"/>
      <path class="cls-1" d="m1501.19,104.58v161.77h-23.94v-69.75h-82.35v69.75h-23.94V104.58h23.94v69.3h82.35v-69.3h23.94Z"/>
      <path class="cls-1" d="m1547.06,266.35l71.38-168.24h1.34l71.38,168.24h-27.3l-51.92-131.02,17.23-11.36-58.63,142.39h-23.5Zm43.41-60.61h57.73l8.28,20.5h-73.17l7.16-20.5Z"/>
      <path class="cls-1" d="m1944.93,255.21c-2.69,1.78-5.93,3.45-9.73,5.01-3.8,1.56-7.87,2.94-12.2,4.12-4.33,1.19-8.77,2.12-13.31,2.79-4.55.67-8.84,1-12.87,1-12.53,0-23.83-2.04-33.9-6.13-10.07-4.08-18.68-9.73-25.85-16.94-7.16-7.2-12.64-15.6-16.45-25.18s-5.71-19.94-5.71-31.08c0-12.03,2.13-23.1,6.38-33.2,4.25-10.1,10.11-18.83,17.57-26.18,7.46-7.35,16.11-13.04,25.96-17.05,9.85-4.01,20.29-6.02,31.33-6.02,8.35,0,16.22,1.04,23.61,3.12,7.38,2.08,14.06,4.9,20.03,8.47l-4.03,9.8c-3.43-2.08-7.31-3.9-11.64-5.46-4.33-1.56-8.77-2.79-13.31-3.68-4.55-.89-9.06-1.34-13.54-1.34-10.15,0-19.54,1.78-28.2,5.35-8.65,3.57-16.19,8.54-22.6,14.93-6.42,6.39-11.41,13.89-14.99,22.51-3.58,8.62-5.37,17.98-5.37,28.08s1.68,18.91,5.04,27.3c3.36,8.39,8.13,15.75,14.32,22.06,6.19,6.32,13.61,11.22,22.27,14.71,8.65,3.49,18.27,5.24,28.87,5.24,6.27,0,12.83-.74,19.69-2.23,6.86-1.48,12.75-3.64,17.68-6.46v-43.9h-35.8v-10.47h46.77v60.83Z"/>
      <path class="cls-1" d="m1996.39,253.43c1.49-1.48,3.21-2.23,5.15-2.23s3.69.75,5.26,2.23c1.57,1.49,2.35,3.27,2.35,5.35,0,2.23-.78,4.05-2.35,5.46-1.57,1.41-3.32,2.12-5.26,2.12s-3.66-.7-5.15-2.12c-1.49-1.41-2.24-3.23-2.24-5.46,0-2.08.74-3.86,2.24-5.35Z"/>
    </g>
    <g>
      <g>
        <g id="_Mirror_Repeat_" data-name="&amp;lt;Mirror Repeat&amp;gt;">
          <g>
            <path class="cls-1" d="m215.25,45.31v43.1c-30.28-20.71-62.86-39.28-93.66-59.83-6.97-4.65-6.75-14.96.43-19.29,4.26-2.57,8.66-4.96,12.86-7.58,3.68-2.3,8.36-2.26,12.04.04,22.45,14.04,46.19,29.75,68.33,43.56Z"/>
            <path class="cls-1" d="m78.36,76.93c-2.97,2.35-7.15,2.51-10.3.4-8.36-5.62-5.85-18.72-5.85-28.79v-22.58c0-8.91,9.76-14.39,17.36-9.75,38.65,23.58,90.9,56.85,124.76,77.09-9.38,5.65-18.25,12.47-27.89,17.75-7.24-6.19-34.33-22.59-42.55-28.37-17.72-12.94-37.23-20.21-55.53-5.76Z"/>
            <path class="cls-1" d="m.01,144.4c.02-3.66,1.8-7.08,4.77-9.21,10.82-7.76,31.2-19.32,38.99-24.91,39.52-28.85,63.07-38.22,104.39-5.49,9.1,6.19,50.48,32.91,58.59,39.04-7.32,3.91-23.75,15.73-30.3,21.4-4.74-4.51-11.17-7.92-16.62-11.59-30.53-22.21-60.46-45.98-94.36-15.56-16.06,10.15-31.84,20.83-47.82,31.12-7.56,4.87-17.53-.54-17.59-9.53-.04-5.41-.07-10.82-.04-15.27Z"/>
            <path class="cls-1" d="m.11,207.71c0-3.7,1.79-7.17,4.82-9.31,15.75-11.12,54.33-35.22,64.6-42.44,11.45-7.51,19.96-14.12,33.92-15.92,26.37-2.24,43.57,19.63,64.83,32.16-4.87,2.01-25.72,16.32-29.19,19.85-29.18-23.24-36.24-16.28-63.98,2.43-18.36,10.95-38.26,25.63-57.57,37.67-7.62,4.76-17.5-.74-17.47-9.72.02-5.19.04-10.4.04-14.72Z"/>
            <path class="cls-1" d="m65.44,252.91c35.95-23.93,75.1-47.67,109.32-73.56,5.86,2.15,24.32,16.58,31.99,20.85-39.89,28.23-86.64,58.35-128.55,86.63-7.56,5.1-17.75-.29-17.8-9.41-.02-5.29-.05-10.59-.06-14.98,0-3.83,1.91-7.4,5.1-9.52Z"/>
            <path class="cls-1" d="m60.36,222.79c0-3.63,1.72-7.04,4.64-9.19,5.55-4.08,12.74-8.18,17.8-11.49,18.21-12.93,27.03-22.03,46.58-4.19-13.31,7.92-33.88,22.66-51.22,34.34-7.59,5.11-17.8-.32-17.8-9.47h0Z"/>
            <path class="cls-1" d="m65.22,308.51c27.24-19.29,86.28-57.6,109.54-73.11,7.3,4.09,22.53,16.32,29.57,21.74-24.63,16.72-89.63,58.38-126.47,82.15-7.65,4.93-17.71-.62-17.61-9.72.05-3.93.13-7.86.15-11.77.01-3.69,1.8-7.16,4.81-9.29Z"/>
            <path class="cls-1" d="m215.25,262.47v41.94c-20.3,12.99-42,27.01-62.36,40.47-3.76,2.49-8.63,2.53-12.43.1-3.42-2.18-7.14-4.38-10.76-6.59-7.08-4.33-7.33-14.51-.48-19.18,28.31-19.31,57.79-37.44,86.02-56.73Z"/>
          </g>
        </g>
        <g id="_Mirror_Repeat_-2" data-name="&amp;lt;Mirror Repeat&amp;gt;">
          <g>
            <path class="cls-1" d="m215.25,45.34v43.13c30.28-20.73,62.86-39.3,93.66-59.87,6.97-4.66,6.75-14.97-.43-19.31-4.26-2.57-8.66-4.96-12.86-7.58-3.68-2.3-8.36-2.26-12.04.04-22.45,14.05-46.19,29.77-68.33,43.59Z"/>
            <path class="cls-1" d="m352.14,76.98c2.97,2.35,7.15,2.51,10.3.4,8.36-5.62,5.85-18.74,5.85-28.8v-22.59c0-8.92-9.76-14.4-17.36-9.75-38.65,23.59-90.9,56.89-124.76,77.14,9.38,5.65,18.25,12.48,27.89,17.76,7.24-6.19,34.33-22.6,42.55-28.39,17.72-12.95,37.23-20.23,55.53-5.76Z"/>
            <path class="cls-1" d="m430.49,144.49c-.02-3.66-1.8-7.08-4.77-9.21-10.82-7.77-31.2-19.34-38.99-24.92-39.52-28.87-63.07-38.24-104.39-5.5-9.1,6.19-50.48,32.93-58.59,39.07,7.32,3.91,23.75,15.74,30.3,21.41,4.74-4.51,11.17-7.92,16.62-11.6,30.53-22.22,60.46-46.01,94.36-15.57,16.06,10.15,31.84,20.84,47.82,31.14,7.56,4.87,17.53-.54,17.59-9.54.04-5.42.07-10.83.04-15.28Z"/>
            <path class="cls-1" d="m430.39,207.85c0-3.7-1.79-7.18-4.82-9.31-15.75-11.13-54.33-35.25-64.6-42.47-11.45-7.51-19.96-14.13-33.92-15.93-26.37-2.24-43.57,19.64-64.83,32.18,4.87,2.01,25.72,16.33,29.19,19.87,29.18-23.26,36.24-16.29,63.98,2.43,18.36,10.95,38.26,25.64,57.57,37.69,7.62,4.76,17.5-.74,17.47-9.73-.02-5.19-.04-10.41-.04-14.73Z"/>
            <path class="cls-1" d="m365.06,253.08c-35.95-23.94-75.1-47.71-109.32-73.61-5.86,2.15-24.32,16.59-31.99,20.86,39.89,28.25,86.64,58.39,128.55,86.69,7.56,5.1,17.75-.29,17.8-9.42.02-5.3.05-10.59.06-14.99,0-3.83-1.91-7.4-5.1-9.53Z"/>
            <path class="cls-1" d="m370.14,222.94c0-3.63-1.72-7.05-4.64-9.2-5.55-4.08-12.74-8.19-17.8-11.5-18.21-12.94-27.03-22.05-46.58-4.2,13.31,7.93,33.88,22.68,51.22,34.36,7.59,5.11,17.8-.32,17.8-9.47h0Z"/>
            <path class="cls-1" d="m365.28,308.72c-27.24-19.3-86.28-57.64-109.54-73.15-7.3,4.09-22.53,16.33-29.57,21.75,24.63,16.73,89.63,58.42,126.47,82.2,7.65,4.94,17.71-.62,17.61-9.73-.05-3.93-.13-7.87-.15-11.78-.01-3.7-1.8-7.16-4.81-9.3Z"/>
            <path class="cls-1" d="m215.25,262.65v41.97c20.3,13,42,27.03,62.36,40.49,3.76,2.49,8.63,2.53,12.43.1,3.42-2.18,7.14-4.38,10.76-6.6,7.08-4.33,7.33-14.52.48-19.2-28.31-19.32-57.79-37.46-86.02-56.76Z"/>
          </g>
        </g>
      </g>
      <circle class="cls-1" cx="215.1" cy="117.12" r="11.93"/>
      <circle class="cls-1" cx="215.1" cy="173.17" r="17.29"/>
      <circle class="cls-1" cx="215.1" cy="229.22" r="15.5"/>
    </g>
  </g>
</svg>