<?xml version="1.0" encoding="UTF-8"?>
<svg id="Layer_2" data-name="Layer 2" xmlns="http://www.w3.org/2000/svg" viewBox="0 0 722 581.96">
  <defs>
    <style>
      .cls-1 {
        fill: #dd2010;
      }
    </style>
  </defs>
  <g id="Layer_1-2" data-name="Layer 1">
    <g>
      <g>
        <g id="_Mirror_Repeat_" data-name="&amp;lt;Mirror Repeat&amp;gt;">
          <g>
            <path class="cls-1" d="m361,75.98v72.28c-50.79-34.74-105.42-65.87-157.07-100.34-11.7-7.8-11.32-25.09.71-32.36,7.14-4.31,14.52-8.32,21.57-12.71,6.18-3.85,14.02-3.79,20.19.06,37.66,23.54,77.46,49.89,114.6,73.06Z"/>
            <path class="cls-1" d="m131.42,129.02c-4.99,3.94-12,4.21-17.27.66-14.03-9.42-9.81-31.4-9.81-48.28v-37.86c0-14.94,16.36-24.13,29.12-16.35,64.81,39.54,152.45,95.35,209.23,129.29-15.73,9.47-30.61,20.92-46.78,29.76-12.15-10.38-57.58-37.88-71.37-47.58-29.72-21.7-62.45-33.9-93.12-9.65Z"/>
            <path class="cls-1" d="m.02,242.18c.04-6.13,3.02-11.87,8-15.44,18.15-13.02,52.33-32.41,65.39-41.77,66.28-48.39,105.78-64.09,175.07-9.21,15.26,10.38,84.65,55.19,98.25,65.48-12.27,6.55-39.84,26.37-50.82,35.89-7.95-7.57-18.73-13.28-27.88-19.44-51.21-37.24-101.4-77.11-158.26-26.1-26.93,17.01-53.39,34.94-80.2,52.19-12.69,8.16-29.39-.9-29.49-15.99-.06-9.08-.11-18.15-.07-25.61Z"/>
            <path class="cls-1" d="m.18,348.36c0-6.21,3.01-12.03,8.08-15.61,26.42-18.66,91.11-59.08,108.35-71.17,19.21-12.59,33.47-23.68,56.88-26.7,44.22-3.76,73.07,32.92,108.73,53.93-8.17,3.36-43.14,27.36-48.96,33.3-48.94-38.98-60.78-27.3-107.31,4.07-30.79,18.36-64.17,42.98-96.55,63.17-12.79,7.97-29.35-1.24-29.29-16.31.03-8.7.07-17.44.07-24.68Z"/>
            <path class="cls-1" d="m109.75,424.17c60.29-40.13,125.96-79.96,183.35-123.37,9.83,3.61,40.79,27.81,53.64,34.96-66.91,47.35-145.31,97.87-215.59,145.29-12.68,8.55-29.77-.49-29.85-15.79-.04-8.88-.09-17.75-.1-25.13,0-6.42,3.2-12.41,8.55-15.96Z"/>
            <path class="cls-1" d="m101.24,373.65c0-6.08,2.88-11.81,7.78-15.41,9.31-6.84,21.37-13.72,29.86-19.27,30.54-21.69,45.32-36.95,78.12-7.03-22.33,13.28-56.82,38-85.91,57.6-12.72,8.57-29.85-.54-29.85-15.88h0Z"/>
            <path class="cls-1" d="m109.38,517.42c45.69-32.34,144.7-96.61,183.71-122.61,12.24,6.86,37.79,27.37,49.6,36.46-41.31,28.04-150.32,97.91-212.1,137.78-12.82,8.27-29.71-1.04-29.53-16.3.08-6.59.22-13.18.25-19.74.02-6.2,3.02-12,8.07-15.58Z"/>
            <path class="cls-1" d="m361,440.2v70.33c-34.04,21.78-70.44,45.3-104.59,67.87-6.31,4.17-14.47,4.24-20.85.17-5.73-3.66-11.98-7.35-18.04-11.06-11.87-7.26-12.29-24.34-.8-32.17,47.49-32.38,96.91-62.79,144.27-95.14Z"/>
          </g>
        </g>
        <g id="_Mirror_Repeat_-2" data-name="&amp;lt;Mirror Repeat&amp;gt;">
          <g>
            <path class="cls-1" d="m361,76.03v72.33c50.79-34.76,105.42-65.92,157.07-100.4,11.7-7.81,11.32-25.11-.71-32.38-7.14-4.31-14.52-8.32-21.57-12.72-6.18-3.85-14.02-3.8-20.19.06-37.66,23.56-77.46,49.92-114.6,73.11Z"/>
            <path class="cls-1" d="m590.58,129.1c4.99,3.94,12,4.21,17.27.67,14.03-9.42,9.81-31.42,9.81-48.31v-37.89c0-14.95-16.36-24.14-29.12-16.36-64.81,39.57-152.45,95.41-209.23,129.37,15.73,9.48,30.61,20.93,46.78,29.78,12.15-10.39,57.58-37.91,71.37-47.61,29.72-21.71,62.45-33.92,93.12-9.66Z"/>
            <path class="cls-1" d="m721.98,242.33c-.04-6.14-3.02-11.88-8-15.45-18.15-13.03-52.33-32.43-65.39-41.8-66.28-48.42-105.78-64.14-175.07-9.22-15.26,10.39-84.65,55.22-98.25,65.52,12.27,6.55,39.84,26.39,50.82,35.91,7.95-7.57,18.73-13.29,27.88-19.45,51.21-37.27,101.4-77.16,158.26-26.12,26.93,17.03,53.39,34.96,80.2,52.23,12.69,8.17,29.39-.9,29.49-16,.06-9.08.11-18.16.07-25.62Z"/>
            <path class="cls-1" d="m721.82,348.59c0-6.21-3.01-12.04-8.08-15.62-26.42-18.67-91.11-59.11-108.35-71.22-19.21-12.6-33.47-23.7-56.88-26.71-44.22-3.76-73.07,32.94-108.73,53.97,8.17,3.37,43.14,27.38,48.96,33.32,48.94-39,60.78-27.31,107.31,4.08,30.79,18.37,64.17,43.01,96.55,63.22,12.79,7.98,29.35-1.24,29.29-16.32-.03-8.7-.07-17.45-.07-24.7Z"/>
            <path class="cls-1" d="m612.25,424.45c-60.29-40.16-125.96-80.01-183.35-123.45-9.83,3.61-40.79,27.83-53.64,34.99,66.91,47.38,145.31,97.93,215.59,145.38,12.68,8.56,29.77-.49,29.85-15.8.04-8.88.09-17.77.1-25.15,0-6.42-3.2-12.42-8.55-15.97Z"/>
            <path class="cls-1" d="m620.76,373.9c0-6.09-2.88-11.82-7.78-15.42-9.31-6.84-21.37-13.73-29.86-19.29-30.54-21.7-45.32-36.97-78.12-7.04,22.33,13.29,56.82,38.03,85.91,57.63,12.72,8.57,29.85-.54,29.85-15.89h0Z"/>
            <path class="cls-1" d="m612.62,517.76c-45.69-32.37-144.7-96.67-183.71-122.69-12.24,6.86-37.79,27.39-49.6,36.48,41.31,28.06,150.32,97.97,212.1,137.87,12.82,8.28,29.71-1.04,29.53-16.31-.08-6.6-.22-13.19-.25-19.75-.02-6.2-3.02-12.01-8.07-15.59Z"/>
            <path class="cls-1" d="m361,440.49v70.38c34.04,21.8,70.44,45.33,104.59,67.91,6.31,4.17,14.47,4.24,20.85.17,5.73-3.66,11.98-7.35,18.04-11.06,11.87-7.26,12.29-24.35.8-32.2-47.49-32.41-96.91-62.83-144.27-95.2Z"/>
          </g>
        </g>
      </g>
      <circle class="cls-1" cx="360.75" cy="196.42" r="20"/>
      <circle class="cls-1" cx="360.75" cy="290.42" r="29"/>
      <circle class="cls-1" cx="360.75" cy="384.42" r="26"/>
    </g>
  </g>
</svg>