<?xml version="1.0" encoding="utf-8"?>
<!-- Generator: Adobe Illustrator 27.4.1, SVG Export Plug-In . SVG Version: 6.00 Build 0)  -->
<svg version="1.1" id="Layer_1" xmlns="http://www.w3.org/2000/svg" xmlns:xlink="http://www.w3.org/1999/xlink" x="0px" y="0px"
	 viewBox="0 0 293.6 222.9" style="enable-background:new 0 0 293.6 222.9;" xml:space="preserve">
<style type="text/css">
	.st0{fill:none;stroke:#FFFFFF;stroke-miterlimit:10;}
	.st1{fill:#B5962D;}
	.st2{fill:#FFFFFF;}
</style>
<path class="st0" d="M0,145.4l0.1-16.8c0-1,0.8-1.8,1.9-1.6l0,0c1,0.2,1.8,1.1,1.8,2.1l-0.1,16.8c0,1-0.8,1.8-1.9,1.6l0,0
	C0.8,147.4,0,146.4,0,145.4z"/>
<path class="st0" d="M4.5,219.8l0.2-37.5c0-1,0.8-1.8,1.9-1.6l0,0c1,0.2,1.8,1.1,1.8,2.1l-0.2,37.5c0,1-0.8,1.8-1.9,1.6l0,0
	C5.3,221.8,4.5,220.8,4.5,219.8z"/>
<path class="st0" d="M8.6,37.9l0.1-10.7c0-0.7,0.5-1.1,1.2-1l0,0c0.6,0.1,1.2,0.7,1.2,1.4l-0.1,10.7c0,0.7-0.5,1.1-1.2,1l0,0
	C9.1,39.2,8.6,38.6,8.6,37.9z"/>
<path class="st0" d="M15.7,56.6l0.1-10.7c0-0.7,0.5-1.1,1.2-1l0,0c0.6,0.1,1.2,0.7,1.2,1.4L18,56.9c0,0.7-0.5,1.1-1.2,1l0,0
	C16.2,57.8,15.6,57.2,15.7,56.6z"/>
<path class="st1" d="M8.1,60.9l0,4.2c0,0.4-0.3,0.7-0.7,0.6l0,0c-0.4-0.1-0.7-0.4-0.7-0.8l0-4.2c0-0.4,0.3-0.7,0.7-0.6l0,0
	C7.8,60.1,8.1,60.5,8.1,60.9z"/>
<path class="st2" d="M10.8,102.7l-0.1,17.2c0,0.4-0.3,0.7-0.7,0.7c-0.4,0-0.7-0.4-0.7-0.8l0-3.6c0-0.2-0.2-0.4-0.4-0.4l0,0
	c-0.2,0-0.3,0.1-0.4,0.3l0,7c0,0.4-0.3,0.7-0.7,0.6l0,0c-0.4-0.1-0.7-0.4-0.7-0.8l0.1-14.1c0-0.4,0.3-0.7,0.7-0.6l0,0
	c0.4,0.1,0.7,0.4,0.7,0.8l0,1.3c0,0.2,0.2,0.4,0.4,0.4l0,0c0.2,0,0.3-0.1,0.4-0.3l0.1-7.9c0-0.4,0.3-0.7,0.7-0.7
	C10.5,101.9,10.8,102.3,10.8,102.7z"/>
<path class="st1" d="M10.4,71.2l-0.1,11.9c0,0.4-0.3,0.7-0.7,0.7c-0.4,0-0.7-0.4-0.7-0.8l0-0.9c0-0.2-0.2-0.4-0.4-0.4l0,0
	c-0.2,0-0.3,0.1-0.4,0.3l0,4.2c0,0.4-0.3,0.7-0.7,0.6l0,0c-0.4-0.1-0.7-0.4-0.7-0.8l0.1-11.1c0-0.4,0.3-0.7,0.7-0.6l0,0
	c0.4,0.1,0.7,0.4,0.7,0.8l0,1.2c0,0.2,0.2,0.4,0.4,0.4l0,0c0.2,0,0.3-0.1,0.4-0.3l0-5.3c0-0.4,0.3-0.7,0.7-0.7
	C10,70.4,10.4,70.8,10.4,71.2z"/>
<path class="st1" d="M18.9,90.8l-0.1,9.9c0,0.4-0.3,0.7-0.7,0.7c-0.4,0-0.7-0.4-0.7-0.8l0-0.9c0-0.2-0.2-0.4-0.4-0.4l0,0
	c-0.2,0-0.3,0.1-0.4,0.3l0,4.2c0,0.4-0.3,0.7-0.7,0.6l0,0c-0.4-0.1-0.7-0.4-0.7-0.8l0.1-11.1c0-0.4,0.3-0.7,0.7-0.6l0,0
	c0.4,0.1,0.7,0.4,0.7,0.8l0,1.2c0,0.2,0.2,0.4,0.4,0.4l0,0c0.2,0,0.3-0.1,0.4-0.3l0-3.2c0-0.4,0.3-0.7,0.7-0.7
	C18.5,90.1,18.9,90.4,18.9,90.8z"/>
<path class="st1" d="M14.8,4.9l0,3.6c0,0.2,0.2,0.4,0.4,0.4l0,0c0.2,0,0.3-0.1,0.4-0.3l0-0.7c0-0.4,0.3-0.7,0.7-0.7
	c0.4,0,0.7,0.4,0.7,0.8l0,6c0,0.2,0.1,0.4,0.3,0.4c0.2,0,0.4-0.1,0.4-0.3l0-0.8c0-0.4,0.3-0.7,0.7-0.7c0.4,0,0.7,0.4,0.7,0.8l0,6.4
	c0,0.4-0.3,0.7-0.7,0.7c-0.4,0-0.7-0.4-0.7-0.8l0-3.6c0-0.2-0.1-0.4-0.3-0.4c-0.2,0-0.4,0.1-0.4,0.3l0,3.6c0,0.4-0.3,0.7-0.7,0.7
	c-0.4,0-0.7-0.4-0.7-0.8l0-2.5c0-0.2-0.2-0.4-0.4-0.4l0,0c-0.2,0-0.3,0.1-0.4,0.3l-0.1,11c0,0.4-0.3,0.7-0.7,0.7
	c-0.4,0-0.7-0.4-0.7-0.8l0.1-14.1c0-0.4,0.3-0.7,0.7-0.7c0.4,0,0.7,0.4,0.7,0.8l0,0.5c0,0.2,0.2,0.4,0.4,0.4l0,0
	c0.2,0,0.3-0.1,0.4-0.3l0-3.5c0-0.2-0.2-0.4-0.4-0.4l0,0c-0.2,0-0.3,0.1-0.4,0.3l0,0.4c0,0.4-0.3,0.7-0.7,0.7
	c-0.4,0-0.7-0.4-0.7-0.8l0-6.4c0-0.4,0.3-0.7,0.7-0.6C14.5,4.1,14.8,4.5,14.8,4.9z"/>
<path class="st1" d="M15.6,176.6l0.1-11.4c0-0.2-0.2-0.4-0.4-0.4l0,0c-0.2,0-0.3,0.1-0.4,0.3l0,2.3c0,0.4-0.3,0.7-0.7,0.7
	c-0.4,0-0.7-0.4-0.7-0.8l0-0.4c0-0.2-0.1-0.4-0.3-0.4c-0.2,0-0.4,0.1-0.4,0.3l0,3.6c0,0.4-0.3,0.7-0.7,0.7c-0.4,0-0.7-0.4-0.7-0.8
	l0.1-17.2c0-0.4,0.3-0.7,0.7-0.7c0.4,0,0.7,0.4,0.7,0.8l0,3.6c0,0.2,0.1,0.4,0.3,0.4c0.2,0,0.4-0.1,0.4-0.3l0.1-7.6
	c0-0.4,0.3-0.7,0.7-0.7c0.4,0,0.7,0.4,0.7,0.8l0,0.2c0,0.2,0.2,0.4,0.4,0.4l0,0c0.2,0,0.3-0.1,0.4-0.3l0-3.9c0-0.4,0.3-0.7,0.7-0.7
	c0.4,0,0.7,0.4,0.7,0.8l-0.1,9.3c0,0.4-0.3,0.7-0.7,0.7c-0.4,0-0.7-0.4-0.7-0.8l0-0.5c0-0.2-0.2-0.4-0.4-0.4l0,0
	c-0.2,0-0.3,0.1-0.4,0.3l-0.1,8.3c0,0.2,0.2,0.4,0.4,0.4l0,0c0.2,0,0.3-0.1,0.4-0.3l0-0.4c0-0.4,0.3-0.7,0.7-0.7
	c0.4,0,0.7,0.4,0.7,0.8L17,176.8c0,0.4-0.3,0.7-0.7,0.6C15.9,177.4,15.6,177,15.6,176.6z"/>
<path class="st2" d="M3,91.5l0-6.6c0-0.4,0.3-0.7,0.7-0.6l0,0c0.4,0.1,0.7,0.4,0.7,0.8l0,6.6c0,0.4-0.3,0.7-0.7,0.6l0,0
	C3.4,92.3,3.1,91.9,3,91.5z"/>
<path class="st1" d="M7,45.4l0-6.6c0-0.4,0.3-0.7,0.7-0.6l0,0c0.4,0.1,0.7,0.4,0.7,0.8l0,6.6c0,0.4-0.3,0.7-0.7,0.6l0,0
	C7.4,46.2,7.1,45.8,7,45.4z"/>
<path class="st1" d="M18.9,39.8l0-2.3c0-0.4,0.3-0.7,0.7-0.6l0,0c0.4,0.1,0.7,0.4,0.7,0.8l0,2.3c0,0.4-0.3,0.7-0.7,0.6l0,0
	C19.2,40.6,18.9,40.2,18.9,39.8z"/>
<path class="st1" d="M7.4,18.9L7.4,18.9c0-0.4,0.3-0.7,0.7-0.6l0,0c0.4,0.1,0.7,0.4,0.7,0.8l0,0c0,0.4-0.3,0.7-0.7,0.6l0,0
	C7.7,19.6,7.4,19.3,7.4,18.9z"/>
<path class="st1" d="M16.9,67.9l0,4.2c0,0.4-0.3,0.7-0.7,0.6l0,0c-0.4-0.1-0.7-0.4-0.7-0.8l0-4.2c0-0.4,0.3-0.7,0.7-0.6l0,0
	C16.6,67.1,16.9,67.5,16.9,67.9z"/>
<path class="st1" d="M16.2,196.4l0,4.2c0,0.4-0.3,0.7-0.7,0.6l0,0c-0.4-0.1-0.7-0.4-0.7-0.8l0-4.2c0-0.4,0.3-0.7,0.7-0.6l0,0
	C15.9,195.6,16.2,196,16.2,196.4z"/>
<path class="st1" d="M13,186.1l0,4.2c0,0.4-0.3,0.7-0.7,0.6l0,0c-0.4-0.1-0.7-0.4-0.7-0.8l0-4.2c0-0.4,0.3-0.7,0.7-0.6l0,0
	C12.7,185.3,13,185.7,13,186.1z"/>
<path class="st2" d="M17.7,69.6l0-6.6c0-0.4,0.3-0.7,0.7-0.6l0,0c0.4,0.1,0.7,0.4,0.7,0.8l0,6.6c0,0.4-0.3,0.7-0.7,0.6l0,0
	C18.1,70.4,17.7,70,17.7,69.6z"/>
<path class="st1" d="M18.9,49.5L18.9,49.5c0-0.4,0.3-0.7,0.7-0.6l0,0c0.4,0.1,0.7,0.4,0.7,0.8l0,0c0,0.4-0.3,0.7-0.7,0.6l0,0
	C19.2,50.3,18.9,49.9,18.9,49.5z"/>
<path class="st1" d="M14.7,208.6L14.7,208.6c0-0.4,0.3-0.7,0.7-0.6l0,0c0.4,0.1,0.7,0.4,0.7,0.8l0,0c0,0.4-0.3,0.7-0.7,0.6l0,0
	C15,209.4,14.7,209,14.7,208.6z"/>
<path class="st1" d="M12.3,51l0-6.6c0-0.4,0.3-0.7,0.7-0.6l0,0c0.4,0.1,0.7,0.4,0.7,0.8l0,6.6c0,0.4-0.3,0.7-0.7,0.6l0,0
	C12.6,51.8,12.3,51.4,12.3,51z"/>
<path class="st1" d="M12.3,128.5l0-6.6c0-0.4,0.3-0.7,0.7-0.6l0,0c0.4,0.1,0.7,0.4,0.7,0.8l0,6.6c0,0.4-0.3,0.7-0.7,0.6l0,0
	C12.6,129.3,12.3,128.9,12.3,128.5z"/>
</svg>
