<?xml version="1.0" encoding="utf-8"?>
<!-- Generator: Adobe Illustrator 27.4.1, SVG Export Plug-In . SVG Version: 6.00 Build 0)  -->
<svg version="1.1" xmlns="http://www.w3.org/2000/svg" xmlns:xlink="http://www.w3.org/1999/xlink" x="0px" y="0px"
	 viewBox="0 0 1207.2 804.8" style="enable-background:new 0 0 1207.2 804.8;" xml:space="preserve">
<style type="text/css">
	.st0{display:none;}
	.st1{display:inline;stroke:#FF9C30;stroke-miterlimit:10;}
	.st2{opacity:0.3;}
	.st3{opacity:0.25;}
	.st4{fill:none;stroke:#B5962D;stroke-linecap:round;stroke-miterlimit:10;}
	.st5{opacity:0.25;fill:none;stroke:#B5962D;stroke-miterlimit:10;}
	.st6{opacity:8.000000e-02;}
	.st7{opacity:0.25;fill:#FFFFFF;}
	.st8{fill:none;stroke:#013154;stroke-miterlimit:10;}
</style>
<g id="BACKGROUND" class="st0">
	<rect class="st1" width="1207.2" height="804.8"/>
</g>
<g id="OBJECTS">
	<g class="st2">
		<g class="st3">
			<line class="st4" x1="740.1" y1="478.4" x2="623" y2="595.6"/>
			<line class="st4" x1="868.9" y1="284.7" x2="751.7" y2="401.9"/>
			<line class="st4" x1="793.9" y1="157.4" x2="676.7" y2="274.6"/>
			<line class="st4" x1="774.4" y1="407.8" x2="727" y2="455.3"/>
			<line class="st4" x1="658.9" y1="292.3" x2="611.4" y2="339.8"/>
			<line class="st4" x1="274.7" y1="107.3" x2="227.2" y2="154.8"/>
			<line class="st4" x1="493.1" y1="424.4" x2="427.5" y2="490"/>
			<line class="st4" x1="416.1" y1="501.4" x2="407.6" y2="509.9"/>
			<line class="st4" x1="599.9" y1="500" x2="465.3" y2="634.6"/>
		</g>
		<path class="st5" d="M809.6,764l157.2-157.2c9.6-9.6,9.6-25.2,0-34.8l0,0c-9.6-9.6-25.2-9.6-34.8,0L774.8,729.2
			c-9.6,9.6-9.6,25.2,0,34.8v0C784.4,773.6,800,773.6,809.6,764z"/>
		<path class="st5" d="M275.1,757.3l350.4-350.4c9.6-9.6,9.6-25.2,0-34.8l0,0c-9.6-9.6-25.2-9.6-34.8,0L240.2,722.4
			c-9.6,9.6-9.6,25.2,0,34.8v0C249.9,766.9,265.5,766.9,275.1,757.3z"/>
		<path class="st5" d="M857.7,392.2l99.6-99.6c6.1-6.1,6.1-16,0-22.1l0,0c-6.1-6.1-16-6.1-22.1,0l-99.6,99.6c-6.1,6.1-6.1,16,0,22.1
			v0C841.8,398.3,851.6,398.3,857.7,392.2z"/>
		<path class="st5" d="M813.4,166.7L913,67.1c6.1-6.1,6.1-16,0-22.1l0,0c-6.1-6.1-16-6.1-22.1,0l-99.6,99.6c-6.1,6.1-6.1,16,0,22.1
			l0,0C797.5,172.8,807.3,172.8,813.4,166.7z"/>
		<path class="st5" d="M109.8,415.2l99.6-99.6c6.1-6.1,6.1-16,0-22.1l0,0c-6.1-6.1-16-6.1-22.1,0l-99.6,99.6c-6.1,6.1-6.1,16,0,22.1
			l0,0C93.8,421.3,103.7,421.3,109.8,415.2z"/>
	</g>
	<g class="st6">
		<path class="st7" d="M708.2,550.3L547.5,711c-3.7,3.7-4,9.9-0.4,13.7c3.7,3.9,9.9,3.9,13.7,0.1l33.4-33.4c1.9-1.9,4.9-1.9,6.8,0
			l0,0c1.9,1.9,1.9,4.9,0,6.8l-65.6,65.6c-3.8,3.8-3.8,9.8,0,13.6l0,0c3.8,3.8,9.8,3.8,13.6,0l131.5-131.5c3.8-3.8,3.8-9.8,0-13.6
			l0,0c-3.8-3.8-9.8-3.8-13.6,0l-12.6,12.6c-1.9,1.9-4.9,1.9-6.8,0l0,0c-1.9-1.9-1.9-4.9,0-6.8l74-74c3.7-3.7,4-9.9,0.4-13.7
			C718.2,546.5,712,546.5,708.2,550.3z"/>
		<path class="st7" d="M737.7,416.8l61.3-61.3c3.8-3.8,3.8-9.8,0-13.6l0,0c-3.8-3.8-9.8-3.8-13.6,0l-61.3,61.3
			c-3.8,3.8-3.8,9.8,0,13.6h0C727.8,420.5,733.9,420.5,737.7,416.8z"/>
		<path class="st7" d="M634.8,293.7l61.3-61.3c3.8-3.8,3.8-9.8,0-13.6l0,0c-3.8-3.8-9.8-3.8-13.6,0l-61.3,61.3
			c-3.8,3.8-3.8,9.8,0,13.6l0,0C625,297.5,631,297.5,634.8,293.7z"/>
		<path class="st7" d="M239.8,195.1L239.8,195.1c3.8-3.8,3.8-9.8,0-13.6h0c-3.8-3.8-9.8-3.8-13.6,0l0,0c-3.8,3.8-3.8,9.8,0,13.6l0,0
			C230,198.8,236.1,198.8,239.8,195.1z"/>
	</g>
	<g class="st2">
		<path class="st8" d="M828.9,560.4l-39.3,39.3c-3.8,3.8-3.8,9.8,0,13.6v0c3.8,3.8,9.8,3.8,13.6,0l39.3-39.3c3.8-3.8,3.8-9.8,0-13.6
			l0,0C838.8,556.6,832.7,556.6,828.9,560.4z"/>
		<path class="st8" d="M1169.1,379.2l-111,111c-3.7,3.7-4,9.9-0.4,13.7c3.7,3.9,9.9,3.9,13.7,0.1l8.6-8.6c1.9-1.9,4.9-1.9,6.8,0l0,0
			c1.9,1.9,1.9,4.9,0,6.8l-39.2,39.2c-3.8,3.8-3.8,9.8,0,13.6l0,0c3.8,3.8,9.8,3.8,13.6,0l103.7-103.7c3.8-3.8,3.8-9.8,0-13.6l0,0
			c-3.8-3.8-9.8-3.8-13.6,0l-11.3,11.3c-1.9,1.9-4.9,1.9-6.8,0l0,0c-1.9-1.9-1.9-4.9,0-6.8l49.1-49.1c3.7-3.7,4-9.9,0.4-13.7
			C1179,375.4,1172.9,375.4,1169.1,379.2z"/>
		<path class="st8" d="M976.7,18l-111,111c-3.7,3.7-4,9.9-0.4,13.7c3.7,3.9,9.9,3.9,13.7,0.1l8.6-8.6c1.9-1.9,4.9-1.9,6.8,0l0,0
			c1.9,1.9,1.9,4.9,0,6.8l-39.2,39.2c-3.8,3.8-3.8,9.8,0,13.6l0,0c3.8,3.8,9.8,3.8,13.6,0L972.6,90c3.8-3.8,3.8-9.8,0-13.6l0,0
			c-3.8-3.8-9.8-3.8-13.6,0l-11.3,11.3c-1.9,1.9-4.9,1.9-6.8,0l0,0c-1.9-1.9-1.9-4.9,0-6.8l49.1-49.1c3.7-3.7,4-9.9,0.4-13.7
			C986.7,14.2,980.5,14.2,976.7,18z"/>
		<path class="st8" d="M254.2,43.1l-111,111c-3.7,3.7-4,9.9-0.4,13.7c3.7,3.9,9.9,3.9,13.7,0.1l8.6-8.6c1.9-1.9,4.9-1.9,6.8,0l0,0
			c1.9,1.9,1.9,4.9,0,6.8l-39.2,39.2c-3.8,3.8-3.8,9.8,0,13.6l0,0c3.8,3.8,9.8,3.8,13.6,0l103.7-103.7c3.8-3.8,3.8-9.8,0-13.6l0,0
			c-3.8-3.8-9.8-3.8-13.6,0l-11.3,11.3c-1.9,1.9-4.9,1.9-6.8,0l0,0c-1.9-1.9-1.9-4.9,0-6.8l49.1-49.1c3.7-3.7,4-9.9,0.4-13.7
			C264.2,39.4,258,39.3,254.2,43.1z"/>
		<path class="st8" d="M392.5,508.5l-92,92c-3.7,3.7-4,9.9-0.4,13.7c3.7,3.9,9.9,3.9,13.7,0.1l8.6-8.6c1.9-1.9,4.9-1.9,6.8,0l0,0
			c1.9,1.9,1.9,4.9,0,6.8l-39.2,39.2c-3.8,3.8-3.8,9.8,0,13.6l0,0c3.8,3.8,9.8,3.8,13.6,0l103.7-103.7c3.8-3.8,3.8-9.8,0-13.6l0,0
			c-3.8-3.8-9.8-3.8-13.6,0l-11.3,11.3c-1.9,1.9-4.9,1.9-6.8,0l0,0c-1.9-1.9-1.9-4.9,0-6.8l30.1-30.1c3.7-3.7,4-9.9,0.4-13.7
			C402.5,504.7,396.3,504.7,392.5,508.5z"/>
		<path class="st8" d="M1187.7,123l-34,34c-1.9,1.9-4.9,1.9-6.8,0l0,0c-1.9-1.9-1.9-4.9,0-6.8l6.5-6.5c3.7-3.7,4-9.9,0.4-13.7
			c-3.7-3.9-9.9-3.9-13.7-0.1l-56.3,56.3c-1.8,1.8-4.7,2.1-6.6,0.5c-2.2-1.8-2.3-5.1-0.3-7.1l7.3-7.3c3.7-3.7,4-9.9,0.4-13.7
			c-3.7-3.9-9.9-3.9-13.7-0.1l-59.3,59.3c-3.7,3.7-4,9.9-0.4,13.7c3.7,3.9,9.9,3.9,13.7,0.1l33.3-33.3c1.8-1.8,4.7-2.1,6.6-0.5
			c2.2,1.8,2.3,5.1,0.3,7.1l-33.2,33.2c-3.7,3.7-4,9.9-0.4,13.7c3.7,3.9,9.9,3.9,13.7,0.1l23.4-23.4c1.9-1.9,4.9-1.9,6.8,0l0,0
			c1.9,1.9,1.9,4.9,0,6.8L973,337.7c-3.7,3.7-4,9.9-0.4,13.7c3.7,3.9,9.9,3.9,13.7,0.1l131.3-131.3c3.7-3.7,4-9.9,0.4-13.7
			c-3.7-3.9-9.9-3.9-13.7-0.1l-4.7,4.7c-1.9,1.9-4.9,1.9-6.8,0l0,0c-1.9-1.9-1.9-4.9,0-6.8l32.4-32.4c1.9-1.9,4.9-1.9,6.8,0l0,0
			c1.9,1.9,1.9,4.9,0,6.8l-3.4,3.4c-3.7,3.7-4,9.9-0.4,13.7c3.7,3.9,9.9,3.9,13.7,0.1l59.5-59.5c3.8-3.8,3.8-10-0.1-13.7
			C1197.6,119,1191.5,119.3,1187.7,123z"/>
		<path class="st8" d="M303.9,410.5L410,304.4c1.9-1.9,4.9-1.9,6.8,0l0,0c1.9,1.9,1.9,4.9,0,6.8l-22,22c-3.7,3.7-4,9.9-0.4,13.7
			c3.7,3.9,9.9,3.9,13.7,0.1l3.9-3.9c1.8-1.8,4.7-2.1,6.6-0.5c2.2,1.8,2.3,5.1,0.3,7.1L385.8,383c-3.7,3.7-4,9.9-0.4,13.7
			c3.7,3.9,9.9,3.9,13.7,0.1l160.7-160.7c3.7-3.7,4-9.9,0.4-13.7c-3.7-3.9-9.9-3.9-13.7-0.1l-33.3,33.3c-1.8,1.8-4.7,2.1-6.6,0.5
			c-2.2-1.8-2.3-5.1-0.3-7.1l71.2-71.2c3.7-3.7,4-9.9,0.4-13.7c-3.7-3.9-9.9-3.9-13.7-0.1l-1.6,1.6c-1.9,1.9-4.9,1.9-6.8,0l0,0
			c-1.9-1.9-1.9-4.9,0-6.8l36.2-36.2c3.7-3.7,4-9.9,0.4-13.7c-3.7-3.9-9.9-3.9-13.7-0.1l-86.8,86.8c-3.7,3.7-4,9.9-0.4,13.7
			c3.7,3.9,9.9,3.9,13.7,0.1l4.7-4.7c1.9-1.9,4.9-1.9,6.8,0l0,0c1.9,1.9,1.9,4.9,0,6.8l-78.1,78.1c-1.9,1.9-4.9,1.9-6.8,0h0
			c-1.9-1.9-1.9-4.9,0-6.8l3.4-3.4c3.7-3.7,4-9.9,0.4-13.7c-3.7-3.9-9.9-3.9-13.7-0.1L290.1,397.1c-3.8,3.8-3.8,10,0.1,13.7
			C294,414.5,300.2,414.2,303.9,410.5z"/>
		<path class="st8" d="M368.7,143.3L430,82c3.8-3.8,3.8-9.8,0-13.6l0,0c-3.8-3.8-9.8-3.8-13.6,0l-61.3,61.3c-3.8,3.8-3.8,9.8,0,13.6
			l0,0C358.9,147.1,364.9,147.1,368.7,143.3z"/>
		<path class="st8" d="M828.1,414.4l21.6-21.6c3.8-3.8,3.8-9.8,0-13.6l0,0c-3.8-3.8-9.8-3.8-13.6,0l-21.6,21.6
			c-3.8,3.8-3.8,9.8,0,13.6v0C818.2,418.2,824.3,418.2,828.1,414.4z"/>
		<path class="st8" d="M138.1,294.9l21.6-21.6c3.8-3.8,3.8-9.8,0-13.6l0,0c-3.8-3.8-9.8-3.8-13.6,0l-21.6,21.6
			c-3.8,3.8-3.8,9.8,0,13.6v0C128.3,298.7,134.4,298.7,138.1,294.9z"/>
		<path class="st8" d="M784,454.4L784,454.4c3.8-3.8,3.8-9.8,0-13.6v0c-3.8-3.8-9.8-3.8-13.6,0v0c-3.8,3.8-3.8,9.8,0,13.6l0,0
			C774.1,458.1,780.2,458.1,784,454.4z"/>
		<path class="st8" d="M488.4,625.1L488.4,625.1c3.8-3.8,3.8-9.8,0-13.6v0c-3.8-3.8-9.8-3.8-13.6,0v0c-3.8,3.8-3.8,9.8,0,13.6l0,0
			C478.6,628.9,484.7,628.9,488.4,625.1z"/>
		<path class="st8" d="M595.6,305l-39.3,39.3c-3.8,3.8-3.8,9.8,0,13.6l0,0c3.8,3.8,9.8,3.8,13.6,0l39.3-39.3c3.8-3.8,3.8-9.8,0-13.6
			v0C605.5,301.2,599.4,301.2,595.6,305z"/>
		<path class="st8" d="M540.8,545.6l-39.3,39.3c-3.8,3.8-3.8,9.8,0,13.6l0,0c3.8,3.8,9.8,3.8,13.6,0l39.3-39.3
			c3.8-3.8,3.8-9.8,0-13.6v0C550.6,541.8,544.6,541.8,540.8,545.6z"/>
		<path class="st8" d="M814.7,79.4l-39.3,39.3c-3.8,3.8-3.8,9.8,0,13.6l0,0c3.8,3.8,9.8,3.8,13.6,0L828.3,93c3.8-3.8,3.8-9.8,0-13.6
			v0C824.5,75.6,818.4,75.6,814.7,79.4z"/>
		<path class="st8" d="M752,293.7L752,293.7c3.8-3.8,3.8-9.8,0-13.6h0c-3.8-3.8-9.8-3.8-13.6,0l0,0c-3.8,3.8-3.8,9.8,0,13.6l0,0
			C742.1,297.5,748.2,297.5,752,293.7z"/>
		<path class="st8" d="M540.6,383.7L540.6,383.7c3.8-3.8,3.8-9.8,0-13.6h0c-3.8-3.8-9.8-3.8-13.6,0l0,0c-3.8,3.8-3.8,9.8,0,13.6l0,0
			C530.7,387.4,536.8,387.4,540.6,383.7z"/>
		<path class="st8" d="M118.9,625.1L118.9,625.1c3.8-3.8,3.8-9.8,0-13.6h0c-3.8-3.8-9.8-3.8-13.6,0l0,0c-3.8,3.8-3.8,9.8,0,13.6l0,0
			C109.1,628.9,115.2,628.9,118.9,625.1z"/>
		<path class="st8" d="M594.5,424.5l61.3-61.3c3.8-3.8,3.8-9.8,0-13.6l0,0c-3.8-3.8-9.8-3.8-13.6,0l-61.3,61.3
			c-3.8,3.8-3.8,9.8,0,13.6v0C584.7,428.2,590.8,428.2,594.5,424.5z"/>
		<path class="st8" d="M164.9,592.8l61.3-61.3c3.8-3.8,3.8-9.8,0-13.6l0,0c-3.8-3.8-9.8-3.8-13.6,0l-61.3,61.3
			c-3.8,3.8-3.8,9.8,0,13.6v0C155.1,596.5,161.2,596.5,164.9,592.8z"/>
	</g>
</g>
</svg>
